<svg xmlns="http://www.w3.org/2000/svg" width="60" height="30" viewBox="0 0 60 30" role="img" aria-label="English">
  <rect width="60" height="30" fill="#012169"/>
  <polygon points="0,0 6,0 60,24 60,30 54,30 0,6" fill="#FFFFFF"/>
  <polygon points="60,0 54,0 0,24 0,30 6,30 60,6" fill="#FFFFFF"/>
  <polygon points="0,0 3,0 60,26 60,30 57,30 0,4" fill="#C8102E"/>
  <polygon points="60,0 57,0 0,26 0,30 3,30 60,4" fill="#C8102E"/>
  <rect x="0" y="12" width="60" height="6" fill="#FFFFFF"/>
  <rect x="27" y="0" width="6" height="30" fill="#FFFFFF"/>
  <rect x="0" y="13" width="60" height="4" fill="#C8102E"/>
  <rect x="28" y="0" width="4" height="30" fill="#C8102E"/>
</svg>
